<?xml version="1.0" standalone="no"?><!DOCTYPE svg PUBLIC "-//W3C//DTD SVG 1.1//EN" "http://www.w3.org/Graphics/SVG/1.1/DTD/svg11.dtd"><svg t="1617461894105" class="icon" viewBox="0 0 1024 1024" version="1.1" xmlns="http://www.w3.org/2000/svg" p-id="2438" width="512" height="512" xmlns:xlink="http://www.w3.org/1999/xlink"><defs><style type="text/css"></style></defs><path d="M512.251843 15.567224c136.507979 0 260.542083 55.793469 350.480673 145.981358h0.524037a496.236898 496.236898 0 0 1 0 701.458672l-2.724486 1.874834a490.967268 490.967268 0 0 1-348.280224 143.557048c-137.056184 0-261.066121-56.042769-350.979271-145.431882h-0.549476a496.296679 496.296679 0 0 1 0-701.458672l2.724486-2.70032A495.454657 495.454657 0 0 1 512.251843 15.567224z m-67.965896 81.814734c-1.899 7.849117-2.999225 15.972971-4.59932 25.171612-8.948069 48.493829-19.497506 105.886122-47.144305 132.982173-10.822903 10.824175-75.264265 57.943041-75.264265 69.866169 0 3.000497 14.598009 3.000497 69.040682 3.000497h0.274738c28.172109 0 63.392015 9.998688 93.712424 27.070612 22.197826 11.923127 42.244808 28.696146 55.76803 48.46839 14.648886 21.947254 21.147207 47.118866 14.648886 75.016238-4.350021 17.347934-13.548661 35.494644-29.796371 53.642625-54.693245 61.716875-54.167935 68.240634-50.368662 99.38653a400.065823 400.065823 0 0 1 3.799272 53.893197c0.52531 12.999185 0.52531 25.997098 1.074786 38.194964 0.52531 28.972157 1.349524 53.893197-0.549476 71.76644v1.624263c-14.098138 111.060357-110.485442 32.496691-144.631834-5.423535-36.820001-41.170022-72.01574-94.513743-82.313334-119.985532-3.275235-7.847845-17.873244-14.896914-33.046167-22.445853-36.045392-18.173421-77.189976-38.196236-79.064809-102.112288-1.100225-40.919451 7.02363-71.241131 12.448437-92.913648 2.724487-10.548165 12.448437-13.54739 8.649164-14.627263-7.574378-2.975058-21.672516 0-35.7414 2.973786-8.374426 1.625534-16.24771 3.524534-24.371564 4.599321a422.361588 422.361588 0 0 0 277.859491 462.070155c35.7414-7.049069 72.590655-24.120993 106.735775-30.345847 76.889799-14.372876 151.906036-28.170837 235.044856-0.274739a414.184311 414.184311 0 0 0 90.738637-67.965896l1.624262-2.17501a401.018503 401.018503 0 0 0 56.073295-68.791383c-17.073196 13.799233-33.046167 24.922313-46.594828 30.871157-21.121768 9.474651-38.995012 10.549437-52.518235 3.524534a49.974363 49.974363 0 0 1-9.248246-7.02363l-1.325357-1.374963c-34.419858-40.065982-17.071924-93.712423 0.800047-147.856191 18.972196-57.69247 38.720273-117.28394-34.119681-139.231194a225.706302 225.706302 0 0 1-34.120953-14.627264c-28.970885-15.698233-51.443449-36.820001-65.541586-60.116779-35.7414-57.69247-11.923127-90.738637 26.546574-132.708707 5.978099-6.498321 11.897689-12.997913 15.972972-18.122543-30.046942 1.600095-69.040682 3.500368-87.463402-46.318819-3.000497-7.598545-4.350021-15.7224-5.424807-23.571516l-0.549476-1.349524c-4.324582-41.719498-27.621361-59.592742-56.317507-90.189161h-2.725759a425.986605 425.986605 0 0 0-67.965896 5.424807zM107.104637 399.067353l4.324582-0.800048c20.022815-4.324582 40.095236-8.673331 59.86748-1.899 37.094739 12.173699 31.145895 33.044895 21.368523 70.140907-5.399368 18.972196-12.448437 46.044081-11.373651 79.889023 1.074786 36.045392 29.271061 50.114275 53.642626 62.566528 23.822088 11.098913 44.943856 21.947254 54.718684 46.044081 9.722678 21.368524 41.144583 69.066121 74.740227 106.43687 8.649164 10.024127 59.316732 72.565217 64.995926 30.071109 2.17501-21.947254 0.825486-44.169247 0.525309-66.641811-0.52531-11.373651-1.074786-23.822088-1.074786-38.444263 0-20.572292-2.149572-36.570702-3.524534-49.044577-5.948844-47.393605-7.049069-57.667031 61.491742-134.857007 10.573603-12.448437 16.773019-23.571517 19.497506-34.14512 2.975058-13.799233-0.52531-27.346622-8.123855-38.970845-9.224079-13.54739-23.822088-25.471789-40.344535-34.394419-23.02204-13.023352-50.114275-20.573564-71.241132-20.573564h-0.274738c-89.663851 0-112.911024 0-114.560725-47.968519-1.074786-42.494107 60.692967-76.089751 88.839637-103.436374 17.322495-17.043941 26.246398-66.641811 34.14512-109.160085l1.074786-5.399368a415.346861 415.346861 0 0 0-179.303536 105.086075l-1.624262 1.349524a422.163166 422.163166 0 0 0-107.786394 184.150883zM645.760598 910.400859c-52.243496-5.674106-103.987122 4.049844-155.980047 13.523222-7.574378 1.653517-14.898186 4.070195-23.02204 5.699545a411.912634 411.912634 0 0 0 45.493332 2.42431 418.604289 418.604289 0 0 0 133.508755-21.647077z m271.639724-309.55995c1.653517-2.999225 3.799273-4.874058 6.523759-7.323807a402.949301 402.949301 0 0 0 8.123855-81.489119 419.534074 419.534074 0 0 0-123.234056-297.111513 420.76658 420.76658 0 0 0-228.840352-117.534512c18.951845 23.02204 33.570205 47.918914 36.820001 80.139595l0.550748 0.300177a55.168949 55.168949 0 0 0 2.724487 13.248485h-0.283642c7.049069 18.421448 27.346622 17.322495 43.069023 16.797186 24.896874-1.349524 44.943856-2.999225 52.518234 24.646302 7.049069 25.997098-11.648389 46.56939-33.020728 69.342131-25.471789 28.696146-43.619771 42.243536-21.147207 77.988751 10.024127 17.043941 26.546575 32.496691 48.219091 44.67039 7.823678 4.070195 16.797186 7.323807 25.995826 10.573603 117.534511 35.494644 90.434644 117.809249 64.466801 197.423535-13.548661 40.344536-27.092235 80.465211-11.648389 101.56154l11.073474-4.59932c11.39909-5.399368 26.021265-15.422223 41.719498-29.520361 25.471789-22.997873 52.84385-56.317507 76.365761-99.113063z" p-id="2439"></path></svg>